<svg width="56" height="56" viewBox="0 0 56 56" fill="none" xmlns="http://www.w3.org/2000/svg">
<path d="M24.4416 55.9757C22.8047 55.6842 21.1858 55.2986 19.5929 54.8209C9.16829 51.235 2.56196 44.0025 0.501275 33.1233C-1.92307 20.4815 4.62265 8.0221 16.3201 2.55211C22.7021 -0.379563 29.9492 -0.801605 36.6267 1.36952C43.3043 3.54064 48.9256 8.14669 52.378 14.2759C55.8303 20.4051 56.8621 27.6107 55.2691 34.4664C53.676 41.3221 49.5743 47.3282 43.7757 51.2958C40.2648 53.719 36.2389 55.2881 32.0177 55.8784C31.8889 55.891 31.7646 55.9326 31.654 56L24.4416 55.9757ZM2.74379 28.018C2.73981 31.3462 3.38959 34.6427 4.65604 37.7191C5.92249 40.7955 7.7808 43.5917 10.1249 45.948C14.8589 50.7067 21.2842 53.3846 27.9872 53.3926C34.6902 53.4007 41.1219 50.7382 45.8673 45.991C50.6128 41.2437 53.2832 34.8005 53.2913 28.0787C53.2913 14.0999 42.0181 2.67366 28.1994 2.67366C24.866 2.65284 21.5614 3.29284 18.4754 4.55688C15.3895 5.82093 12.5831 7.68409 10.2176 10.0393C7.85208 12.3945 5.97404 15.1953 4.69143 18.2806C3.40881 21.366 2.74692 24.6752 2.74379 28.018Z" fill="#00AFF0"/>
<path d="M24.7446 31.7861C22.793 32.3449 20.7739 32.6312 18.7444 32.637C15.2291 32.4546 12.0774 31.4214 9.7137 28.6864C6.98632 25.526 6.50145 21.8793 7.71362 17.9896C9.16822 13.2489 12.3805 9.9669 16.7443 7.7789C18.2213 7.0792 19.7644 6.52946 21.3505 6.13791C22.7445 5.77324 23.6537 6.50257 23.593 7.96124C23.5324 9.4199 23.3506 10.6962 23.1688 12.0941C22.9263 13.9174 22.6233 15.7408 22.987 17.6249C23.3506 19.509 25.0476 22.3048 26.4416 23.2772L26.9871 21.4539C28.1387 18.0503 30.0175 15.1938 33.1692 13.3097C37.7148 10.5747 43.2302 11.5471 46.9273 15.68C50.079 19.2051 51.3517 23.4595 51.1093 28.1394C51.0091 29.8467 50.7246 31.5381 50.2608 33.184C49.8971 34.7642 48.8062 35.2504 47.4122 34.3387C46.2 33.5486 45.0484 32.637 43.8969 31.7253C43.2908 31.2999 42.6847 30.8136 42.0786 30.3882C39.5331 28.5041 36.6845 28.261 33.7147 28.9295C33.4722 28.9903 33.2298 29.0511 32.8661 29.1119V28.261C32.8882 27.2089 32.5692 26.1781 31.9572 25.3232C31.3452 24.4684 30.4732 23.8358 29.4721 23.5203C28.4612 23.1928 27.3703 23.2122 26.3716 23.5753C25.3729 23.9385 24.5233 24.6248 23.9567 25.526C23.3904 26.4108 23.1203 27.4537 23.1857 28.503C23.2511 29.5524 23.6486 30.5534 24.3203 31.3606C24.4416 31.3606 24.5628 31.6038 24.7446 31.7861Z" fill="#00AFF0"/>
<path d="M24.7446 31.7861C25.5129 32.2178 26.3259 32.5643 27.169 32.8194C28.3152 33.0638 29.5112 32.8687 30.521 32.2724C31.5307 31.6761 32.281 30.7219 32.6238 29.5982C32.6935 29.419 32.7542 29.2364 32.8056 29.0512C35.232 31.1609 36.9646 33.9578 37.7755 37.0738C38.5461 39.7322 38.2571 42.5869 36.9694 45.0357C35.0905 48.5608 31.9995 50.3841 28.1812 50.8704C21.9385 51.6605 16.7262 49.3509 12.423 44.9141C11.2108 43.6986 11.3926 42.6046 12.8472 41.8145C14.12 41.1459 15.4534 40.6597 16.7868 40.0519C17.3322 39.8088 17.9383 39.5657 18.4838 39.3226C21.6961 37.9855 23.5143 35.4936 24.484 32.2116C24.5747 32.0757 24.6557 31.9335 24.7265 31.7862L24.7446 31.7861Z" fill="#00AFF0"/>
</svg>
