<?xml version='1.0' encoding='UTF-8' standalone='no'?>
<!DOCTYPE svg PUBLIC '-//W3C//DTD SVG 1.1//EN' 'http://www.w3.org/Graphics/SVG/1.1/DTD/svg11.dtd'>
<!-- Animated using aniGen version 0.8.1 Quality of Life - http://anigen.org -->
<svg width="93px" height="93px" viewBox="0 0 93 93" fill="none" version="1.1" id="svg8" sodipodi:docname="logo-black.svg" inkscape:version="1.1.2 (b8e25be833, 2022-02-05)" xmlns:inkscape="http://www.inkscape.org/namespaces/inkscape" xmlns:sodipodi="http://sodipodi.sourceforge.net/DTD/sodipodi-0.dtd" xmlns="http://www.w3.org/2000/svg" xmlns:svg="http://www.w3.org/2000/svg" preserveAspectRatio="xMidYMid" xmlns:xlink="http://www.w3.org/1999/xlink" xmlns:anigen="http://www.anigen.org/namespace" anigen:version="0.8.1">
  <defs id="defs12"></defs>
  <sodipodi:namedview id="namedview10" pagecolor="#505050" bordercolor="#eeeeee" borderopacity="1" inkscape:pageshadow="0" inkscape:pageopacity="0" inkscape:pagecheckerboard="0" showgrid="false" inkscape:snap-object-midpoints="true" inkscape:zoom="8" inkscape:cx="29.8125" inkscape:cy="-39.25" inkscape:window-width="1920" inkscape:window-height="1017" inkscape:window-x="-8" inkscape:window-y="-8" inkscape:window-maximized="1" inkscape:current-layer="svg8" anigen:loop="10"></sodipodi:namedview>
  <path d="M40.3271 92.0991C37.6262 91.6195 34.9551 90.9851 32.3271 90.1991C15.1271 84.2991 4.22707 72.3991 0.82707 54.4991C-3.17293 33.6991 7.62707 13.1991 26.9271 4.19908C37.457 -0.62451 49.4142 -1.31891 60.4317 2.25333C71.4492 5.82557 80.724 13.4041 86.4202 23.4887C92.1163 33.5733 93.8187 45.4291 91.1903 56.709C88.5619 67.989 81.7943 77.8711 72.2271 84.3991C66.4343 88.386 59.7919 90.9677 52.8271 91.9391C52.6146 91.9598 52.4095 92.0282 52.2271 92.1391L40.3271 92.0991ZM4.52707 46.0991C4.5205 51.5752 5.5926 56.999 7.68216 62.0608C9.77171 67.1226 12.8378 71.7232 16.7054 75.6001C24.5163 83.4297 35.1175 87.8358 46.1771 87.8491C57.2366 87.8624 67.8484 83.4817 75.6781 75.6708C83.5077 67.8599 87.9138 57.2586 87.9271 46.1991C87.9271 23.1991 69.3271 4.39908 46.5271 4.39908C41.0272 4.36482 35.5748 5.41784 30.4833 7.49763C25.3917 9.57741 20.7614 12.6429 16.8584 16.518C12.9554 20.3931 9.85677 25.0014 7.74054 30.0779C5.62431 35.1544 4.53223 40.5991 4.52707 46.0991Z" fill="#00AFF0" id="path2"></path>
  <path d="M 62.321582 61.164008 C 63.558194 65.54799700000001 63.043892 70.240849 60.887258 74.252994 C 57.741150000000005 80.028114 52.617412 82.98738900000001 46.311238 83.737173 C 36.001208000000005 84.955073 27.431755000000003 81.086681 20.390136000000002 73.73034799999999 C 18.406133 71.71447699999999 18.720465 69.916924 21.130745 68.63608799999999 C 23.239441 67.55285099999999 25.644964 66.77431099999998 27.852862000000002 65.791868 C 28.756020000000003 65.399051 29.759174 65.00703 30.662333 64.61421299999999 C 37.404142 61.199512999999996 38.006231 57.112880999999994 40.411364 52.26216899999999 C 36.538987999999996 53.07339699999999 35.199859 53.64416099999999 31.126227 53.70297399999999 C 25.326227 53.40297399999999 20.126227 51.70297399999999 16.226227 47.20297399999999 C 11.726227000000002 42.00297399999999 10.727008000000001 35.999067999999994 12.727008000000001 29.599067999999992 C 15.127008000000002 21.79906799999999 20.427008 16.399067999999993 27.627008000000004 12.799067999999991 C 30.063908000000005 11.647767999999992 32.609908000000004 10.743267999999992 35.227008000000005 10.099067999999992 C 37.527008 9.499037999999992 39.027008 10.699067999999992 38.92700800000001 13.099067999999992 C 38.827008000000006 15.499067999999992 38.52700800000001 17.599067999999992 38.227008000000005 19.899067999999993 C 37.827008000000006 22.899067999999993 37.327008000000006 25.899067999999993 37.92700800000001 28.999067999999994 C 38.52700800000001 32.099067999999995 40.42907100000001 35.85491199999999 43.39966400000001 38.359224 C 45.62025800000001 28.355722999999998 49.52700800000001 24.999067999999998 54.72700800000001 21.899067999999996 C 62.22700800000001 17.399067999999996 71.327008 18.999067999999998 77.42700800000001 25.799067999999995 C 82.62700800000002 31.599067999999995 84.72700800000001 38.599067999999995 84.32700800000002 46.29906799999999 C 84.16160800000002 49.10816799999999 83.69220800000002 51.89106799999999 82.92700800000001 54.59906799999999 C 82.32700800000002 57.19906799999999 80.52700800000001 57.99906799999999 78.22700800000001 56.49906799999999 C 76.22700800000001 55.19906799999999 74.327008 53.69906799999999 72.42700800000001 52.19906799999999 C 71.42700800000001 51.49906799999999 70.42700800000001 50.69906799999999 69.42700800000001 49.99906799999999 C 65.22700800000001 46.899067999999986 60.46255200000002 46.54401499999999 55.56255200000001 47.64401499999999 C 55.25406000000001 47.72113499999999 54.78938500000001 47.80522399999999 54.142598000000014 47.91229399999999 C 57.98361700000002 51.38670999999999 61.052523000000015 56.137236999999985 62.321582000000014 61.16400799999999 Z M 52.782554 41.709665 C 51.772729999999996 40.303182 50.243446999999996 39.125328 48.593864999999994 38.599634 C 46.92381999999999 38.067419 44.99349899999999 38.125724000000005 43.345682999999994 38.723276 C 41.69789899999999 39.32082 40.390426999999995 40.464897 39.449670999999995 41.943825 C 38.521212 43.403420999999994 38.221225 45.152279 38.376445 46.87517 C 38.59327699999999 49.281938 39.663988999999994 50.730013 40.761756 51.855971 C 41.644684 52.761573 43.419275 53.61256899999999 44.849337999999996 53.870456 C 47.18977699999999 54.292513 49.205853 53.535591 50.82400799999999 52.477183 C 52.452096999999995 51.412276999999996 53.68347999999999 48.992649 53.97269599999999 47.342907999999994 C 54.26191099999999 45.693166999999995 53.79232999999999 43.11608199999999 52.78255399999999 41.709664999999994 Z" fill="#00AFF0" id="path6" sodipodi:nodetypes="cccccccccccccscscccccccccccssssssssss">
    <animateTransform attributeName="transform" attributeType="auto" type="rotate" values="0 46.3125 46.125;360 46.3125 46.125" calcMode="spline" keyTimes="0;1" keySplines="0 0 1 1" dur="10s" begin="0s" repeatCount="indefinite" additive="sum" accumulate="none" fill="freeze" id="animateTransform4052"></animateTransform>
  </path>
</svg>