<svg width="256" height="64" viewBox="0 0 256 64" fill="none" xmlns="http://www.w3.org/2000/svg">
<path d="M52.0061 54.1178H54.9671V36.2831C54.9671 29.8688 59.6343 25.2586 65.7068 25.2586C71.9299 25.2586 75.5433 29.4178 75.5433 35.782V54.1178H78.5042V35.2307C78.5042 27.8644 73.9373 22.5024 66.1585 22.5024C60.5377 22.5024 57.0749 25.3588 55.0173 28.9668V23.2541H52.0563L52.0061 54.1228V54.1178ZM89.5451 9.91943H92.5061V54.1178H89.5451V9.91943ZM108.014 63.9897C112.43 63.9897 115.592 61.6846 118.302 55.2202L131.701 23.2491H128.439L117.298 50.8605L104.45 23.2491H100.987L115.843 53.9173C113.534 59.3294 111.426 61.1835 108.214 61.1835C106.39 61.2324 104.581 60.8368 102.945 60.0309L101.876 62.6367C103.778 63.5891 105.887 64.0557 108.014 63.9947V63.9897Z" fill="#313131"/>
<path d="M164.322 21.2997C165.175 19.9968 166.079 18.5937 166.932 17.1906C167.785 15.7875 168.638 14.3843 169.341 13.0814C170.043 11.7785 170.645 10.5759 171.147 9.52353C171.555 8.76471 171.794 7.92734 171.85 7.06807C171.901 5.86769 171.508 4.69054 170.746 3.76071C169.943 2.80665 168.93 2.05183 167.785 1.5558C166.459 0.95064 165.05 0.545335 163.604 0.353127C162.01 0.111712 160.399 -0.00556783 158.787 0.00234688C153.333 -0.0421572 147.894 0.546427 142.577 1.75625C137.928 2.81063 133.391 4.304 129.026 6.21617C125.257 7.86339 121.66 9.87759 118.287 12.2295C115.522 14.1538 112.905 16.2811 110.458 18.5937C108.658 20.2383 107.057 22.0884 105.69 24.106C104.636 25.7596 104.084 26.9623 104.084 27.6639C104.074 28.5313 104.357 29.3768 104.887 30.0642C105.355 30.6823 105.934 31.2089 106.593 31.6177C107.102 31.9407 107.698 32.0983 108.3 32.0687C108.801 32.0186 109.103 31.768 109.103 31.2669C109.103 30.3148 109.705 28.9618 110.859 27.2079C112.338 25.0957 114.018 23.1321 115.878 21.3448C118.331 18.9877 120.965 16.8262 123.757 14.8804C130.544 10.0532 138.167 6.5195 146.24 4.45726C150.714 3.30681 155.321 2.75078 159.941 2.80358C161.112 2.75568 162.284 2.90821 163.404 3.25458C164.099 3.49887 164.733 3.89227 165.261 4.40715C165.658 4.84039 165.92 5.38046 166.013 5.9606C166.113 6.47243 166.164 6.99262 166.164 7.51406C166.109 8.47526 165.853 9.41424 165.411 10.2702C164.846 11.5411 164.209 12.7791 163.504 13.9784C162.701 15.3314 161.848 16.6845 160.894 18.0876C159.941 19.4907 158.987 20.8437 158.084 22.0965C154.36 22.5463 150.671 23.2495 147.043 24.2012C144.201 24.9343 141.443 25.9587 138.813 27.258C136.893 28.1737 135.145 29.411 133.643 30.9161C132.439 32.219 131.837 33.5219 131.837 34.8749C131.824 35.6235 131.996 36.3637 132.339 37.0297C132.607 37.5396 132.984 37.9844 133.443 38.3326C133.596 38.4557 133.774 38.5459 133.963 38.5976C134.153 38.6493 134.352 38.6615 134.547 38.6333C134.898 38.5832 135.049 38.2825 135.049 37.7313C135.049 37.1801 135.5 36.4785 136.353 35.5264C137.514 34.342 138.811 33.2991 140.218 32.4195C142.192 31.1247 144.274 30.0014 146.441 29.062C149.219 27.8533 152.089 26.8647 155.023 26.1054C152.915 28.8114 150.857 31.4673 148.749 34.0731C146.642 36.6789 144.785 39.2346 143.078 41.6901C141.542 43.9193 140.183 46.265 139.013 48.7057C138.052 50.6407 137.521 52.7605 137.458 54.9195C137.451 55.7839 137.569 56.6446 137.809 57.4752C138.013 58.2071 138.335 58.901 138.762 59.5298C139.125 60.0923 139.604 60.5707 140.168 60.9329C140.634 61.2697 141.198 61.4456 141.774 61.434C142.084 61.4335 142.385 61.3275 142.627 61.1333C142.839 60.9131 142.979 60.6334 143.028 60.3316L143.179 59.2792V58.1768C143.179 56.3226 143.781 54.0676 144.985 51.5119C146.349 48.6711 147.873 45.9105 149.552 43.2435C151.409 40.287 153.467 37.2302 155.725 34.023C157.984 30.8159 160.192 27.6589 162.35 24.552C165.971 24.0091 169.628 23.7411 173.29 23.7502C174.053 23.7515 174.812 23.8526 175.549 24.0508C176.05 24.2012 176.552 24.4016 177.054 24.6021C177.3 24.7535 177.572 24.8556 177.857 24.9027C178.008 24.9529 178.108 24.8025 178.108 24.5018C178.099 24.0514 178.002 23.6072 177.821 23.1944C177.64 22.7817 177.38 22.4086 177.054 22.0965C176.627 21.7114 176.128 21.4155 175.585 21.2262C175.042 21.0368 174.467 20.9579 173.893 20.994C170.329 20.994 167.218 21.0943 164.307 21.2947L164.322 21.2997Z" fill="#00AFF0"/>
<path d="M200.205 31.9735C199.302 33.2263 198.248 34.5793 197.093 36.0325C195.939 37.4858 194.735 39.0392 193.43 40.5927C192.125 42.1461 190.921 43.5493 189.716 44.802C188.704 45.9133 187.613 46.9515 186.454 47.909C185.45 48.7107 184.647 49.1116 184.095 49.1116C183.292 49.1116 182.941 48.7107 182.991 47.9591C183.143 46.9682 183.484 46.0156 183.995 45.1528C184.652 43.8715 185.389 42.6329 186.203 41.4446C187.106 40.0916 187.96 38.8388 188.813 37.6862C189.666 36.5336 190.369 35.5314 191.021 34.7296C191.379 34.3012 191.683 33.8299 191.924 33.3265C191.913 33.2332 191.879 33.1438 191.827 33.0655C191.775 32.9873 191.705 32.9222 191.623 32.8755C191.385 32.6776 191.113 32.5248 190.82 32.4245C190.519 32.2742 190.168 32.1238 189.816 31.9735C189.5 31.8211 189.161 31.7196 188.813 31.6728C189.17 30.7623 189.357 29.7942 189.365 28.8165C189.367 27.9722 189.266 27.1308 189.064 26.3109C188.925 25.6048 188.62 24.9416 188.175 24.3755C187.731 23.8094 187.158 23.3564 186.504 23.0537C185.715 22.707 184.855 22.5524 183.995 22.6027C182.047 22.6074 180.119 22.9992 178.324 23.7552C176.498 24.53 174.792 25.5592 173.255 26.812C171.657 28.0986 170.209 29.5611 168.939 31.1717C167.687 32.7218 166.578 34.3823 165.627 36.1328C164.759 37.7115 164.053 39.3736 163.519 41.0938C163.066 42.5049 162.813 43.9723 162.766 45.4535C162.726 46.7747 162.966 48.0895 163.469 49.3121C163.871 50.2615 164.47 51.1154 165.225 51.8177C165.893 52.4349 166.678 52.912 167.534 53.2208C168.294 53.4791 169.09 53.6145 169.893 53.6217C170.915 53.6045 171.917 53.3286 172.803 52.8199C173.666 52.3218 174.474 51.7338 175.212 51.066C176.043 50.2632 176.783 49.3727 177.421 48.4101C177.319 49.2975 177.37 50.1957 177.571 51.066C177.761 51.7481 178.124 52.3696 178.625 52.87C179.177 53.4212 180.03 53.6718 181.184 53.6718C182.088 53.6718 183.192 53.2208 184.447 52.2687C185.894 51.1736 187.253 49.9672 188.512 48.6606C189.967 47.2074 191.422 45.5537 192.978 43.7497C194.534 41.9457 195.939 40.1417 197.294 38.3878C198.649 36.6339 199.904 34.9802 201.008 33.4768C202.112 31.9735 202.965 30.7708 203.618 29.8688C203.69 29.7887 203.742 29.6919 203.768 29.587C203.795 29.4821 203.795 29.3723 203.768 29.2675C203.768 29.1171 203.618 28.9668 203.467 28.8666C203.29 28.8024 203.1 28.7851 202.915 28.8165C202.671 28.8707 202.457 29.0136 202.313 29.2174C201.811 29.8187 201.108 30.7207 200.205 31.9735ZM168.121 49.1066C167.861 47.573 167.929 46.0016 168.322 44.4964C169.404 40.183 171.337 36.1284 174.008 32.5698C175.295 30.8172 176.834 29.2637 178.575 27.9596C180.036 26.8062 181.832 26.1558 183.694 26.1054C184.003 26.0856 184.313 26.1442 184.593 26.2756C184.874 26.407 185.117 26.607 185.3 26.8571C185.663 27.4419 185.839 28.1241 185.802 28.8115C185.803 29.9404 185.546 31.0547 185.049 32.0687C184.611 33.0251 184.073 33.9323 183.443 34.7747C182.965 35.4572 182.445 36.1099 181.887 36.7291C181.621 36.9893 181.381 37.2746 181.169 37.581C181.257 37.7821 181.375 37.9682 181.521 38.1322C181.772 38.4329 182.023 38.7837 182.274 39.0843C181.32 40.4373 180.366 41.7903 179.313 43.1935C178.359 44.5285 177.319 45.8007 176.201 47.0019C175.292 48.0521 174.265 48.9938 173.14 49.8082C172.328 50.47 171.326 50.8562 170.279 50.9106C169.125 50.9658 168.437 50.3644 168.121 49.1066Z" fill="#00AFF0"/>
<path d="M214.909 52.1684C216.406 51.1161 217.786 49.9065 219.025 48.5604C220.48 47.1071 221.935 45.4534 223.441 43.6494C224.947 41.8454 226.352 40.0414 227.657 38.2875C228.961 36.5336 230.166 34.8799 231.27 33.3766C232.374 31.8732 233.177 30.6706 233.829 29.7685C233.902 29.6884 233.954 29.5916 233.98 29.4867C234.007 29.3818 234.006 29.2721 233.98 29.1672C233.98 29.0169 233.829 28.8665 233.679 28.7663C233.502 28.7021 233.312 28.6849 233.127 28.7162C232.883 28.7704 232.668 28.9133 232.525 29.1171C232.073 29.7184 231.37 30.6706 230.467 31.9233C229.564 33.1761 228.51 34.5291 227.355 35.9824C226.201 37.4356 224.997 38.9891 223.692 40.5425C222.387 42.096 221.183 43.4991 219.978 44.7519C218.953 45.851 217.864 46.8885 216.716 47.8588C215.712 48.6606 214.909 49.0615 214.357 49.0615C213.655 49.0615 213.303 48.861 213.203 48.3599C213.173 47.7115 213.33 47.068 213.655 46.5058C214.11 45.548 214.665 44.6409 215.311 43.7998C216.064 42.7474 216.816 41.645 217.67 40.4924C218.523 39.3398 219.376 38.0871 220.279 36.8343C221.183 35.5815 221.986 34.3287 222.688 33.126C223.37 31.9992 223.973 30.8272 224.495 29.6182C224.922 28.6887 225.161 27.6838 225.197 26.6616C225.259 25.5904 224.997 24.5253 224.445 23.6048C223.943 22.8532 223.09 22.5024 221.885 22.5024C220.636 22.557 219.416 22.9 218.322 23.5046C216.992 24.2396 215.732 25.095 214.558 26.0603C213.311 27.0976 212.122 28.2016 210.995 29.3677C209.841 30.5703 208.837 31.6728 207.934 32.675C207.03 33.6772 206.277 34.5792 205.725 35.2307C205.448 35.6006 205.128 35.9369 204.772 36.2329C204.671 36.2329 204.822 35.832 205.224 35.0804C205.625 34.3287 206.077 33.4267 206.629 32.3743C207.191 31.3002 207.693 30.1961 208.134 29.067C208.552 28.1186 208.774 27.0961 208.787 26.0603C208.804 25.6927 208.746 25.3255 208.616 24.9809C208.487 24.6363 208.289 24.3216 208.034 24.0558C207.59 23.5579 207.042 23.1643 206.428 22.9033C205.949 22.6481 205.415 22.5107 204.872 22.5024C204.421 22.5024 204.17 22.5525 204.17 22.7028C204.075 24.2386 203.719 25.7469 203.116 27.1627C202.313 29.1672 201.409 31.1216 200.456 33.0258C199.402 35.1305 198.197 37.2352 196.943 39.3899C195.688 41.5447 194.534 43.4991 193.43 45.3031C192.326 47.1071 191.473 48.5102 190.77 49.6127C190.369 50.214 190.017 50.8154 189.666 51.4668C189.698 51.6551 189.785 51.8296 189.917 51.9679C190.125 52.2262 190.361 52.4614 190.619 52.6695C190.959 52.9182 191.33 53.1204 191.724 53.2708C192.152 53.4503 192.614 53.5358 193.079 53.5214C193.329 53.5214 193.831 53.1205 194.584 52.3688C195.337 51.6172 196.19 50.5648 197.194 49.2619C198.197 47.959 199.352 46.5058 200.606 44.8521C201.861 43.1984 203.166 41.5447 204.521 39.7908C205.876 38.0369 207.231 36.3833 208.586 34.7296C209.941 33.0759 211.246 31.6227 212.5 30.3198C213.571 29.1943 214.729 28.1555 215.963 27.2129C217.017 26.4612 217.87 26.0603 218.573 26.0603C219.426 26.0603 219.777 26.4111 219.526 27.1126C219.14 28.1256 218.599 29.0724 217.921 29.9189C217.067 31.0714 216.064 32.4245 214.859 33.9779C213.655 35.5314 212.5 37.1349 211.346 38.7385C210.296 40.3349 209.341 41.9915 208.486 43.6995C207.741 45.144 207.33 46.7363 207.281 48.3599C207.238 49.2303 207.375 50.1001 207.683 50.9156C207.948 51.5811 208.38 52.1676 208.937 52.6194C209.669 53.1805 210.575 53.4645 211.497 53.4212C212.4 53.5715 213.554 53.1205 214.909 52.1684Z" fill="#00AFF0"/>
<path d="M252.935 31.1716C252.333 32.0235 251.63 32.9256 250.878 34.028C250.125 35.1305 249.272 36.1828 248.368 37.3855C247.465 38.5881 246.562 39.6906 245.608 40.7931C244.655 41.8955 243.751 42.9478 242.898 43.9C242.125 44.7804 241.286 45.6012 240.389 46.3554C240.57 45.7657 240.704 45.1624 240.79 44.5514C240.892 43.9387 240.943 43.3184 240.941 42.6973C240.932 41.2021 240.797 39.7102 240.539 38.2374C240.238 36.7841 239.937 35.2808 239.636 33.7774C239.335 32.2741 238.984 30.7708 238.733 29.2173C238.448 27.6974 238.313 26.1532 238.331 24.607C238.328 23.6554 238.533 22.7147 238.933 21.8509C239.337 21.1038 239.79 20.384 240.288 19.6961C240.79 19.0948 241.242 18.4934 241.643 17.9923C242.022 17.6222 242.238 17.1179 242.246 16.5892C242.238 16.4365 242.193 16.2881 242.114 16.157C242.035 16.026 241.925 15.9162 241.794 15.8375C241.44 15.5951 241.018 15.4722 240.589 15.4868C239.539 15.4828 238.499 15.6872 237.528 16.0881C235.446 16.9299 233.724 18.4721 232.66 20.4478C232.125 21.4318 231.849 22.5353 231.857 23.6549C231.906 25.0173 232.057 26.3742 232.309 27.714C232.61 29.4177 232.911 31.2719 233.262 33.2763C233.614 35.2808 233.865 37.2853 234.065 39.2897C234.266 41.1217 234.266 42.97 234.065 44.802C233.961 46.2239 233.514 47.5995 232.76 48.8109C232.058 49.8632 230.954 50.3643 229.498 50.3643C228.043 50.3643 226.989 49.9635 226.387 49.2118C225.803 48.4874 225.485 47.5858 225.484 46.6561C225.492 46.2672 225.388 45.8842 225.182 45.5536C225.115 45.4426 225.019 45.3515 224.904 45.2898C224.789 45.2282 224.66 45.1982 224.53 45.2029C224.384 45.2312 224.245 45.2906 224.124 45.3771C224.003 45.4635 223.902 45.575 223.827 45.704C223.58 46.146 223.475 46.6534 223.526 47.1572C223.538 47.9256 223.673 48.6871 223.928 49.4122C224.181 50.1587 224.592 50.8422 225.132 51.4167C225.719 52.0275 226.418 52.5207 227.19 52.8699C228.123 53.2738 229.135 53.4623 230.151 53.4211H230.904C232.669 53.3886 234.397 52.9056 235.922 52.018C237.728 51.0107 239.411 49.8001 240.941 48.41C242.639 46.8981 244.216 45.2562 245.658 43.4991C247.164 41.7452 248.569 39.9412 249.874 38.1873C251.179 36.4334 252.333 34.7797 253.387 33.2763C254.441 31.773 255.244 30.5703 255.846 29.6683C255.924 29.5901 255.975 29.4897 255.993 29.3811C256.011 29.2725 255.995 29.1609 255.946 29.062C255.893 28.899 255.787 28.7581 255.645 28.6611C255.47 28.5929 255.278 28.5756 255.093 28.611C254.977 28.6315 254.866 28.6782 254.771 28.7477C254.675 28.8172 254.597 28.9075 254.541 29.0118C254.039 29.6633 253.537 30.3147 252.935 31.1666V31.1716Z" fill="#00AFF0"/>
<path d="M20.2385 54.5737C18.883 54.3334 17.5425 54.0155 16.2236 53.6216C7.59165 50.665 2.12139 44.7018 0.415072 35.7318C-1.59236 25.3086 3.82771 15.0358 13.5136 10.5257C18.7981 8.10856 24.7989 7.76058 30.3281 9.55068C35.8574 11.3408 40.512 15.1385 43.3707 20.192C46.2294 25.2456 47.0837 31.1867 45.7646 36.8392C44.4455 42.4918 41.0491 47.4438 36.2478 50.7151C33.3388 52.706 30.0053 53.9928 26.5117 54.4735C26.4051 54.4839 26.3021 54.5181 26.2106 54.5737H20.2385ZM2.27195 31.5224C2.26865 34.2666 2.8067 36.9845 3.85536 39.5211C4.90402 42.0576 6.44276 44.3631 8.38373 46.3058C12.3037 50.2294 17.624 52.4373 23.1744 52.444C28.7247 52.4506 34.0503 50.2554 37.9797 46.3413C41.9091 42.4271 44.1203 37.1146 44.1269 31.5726C44.1269 20.0469 34.7924 10.626 23.35 10.626C20.5899 10.6088 17.8535 11.1365 15.2983 12.1787C12.743 13.2209 10.4193 14.7571 8.46053 16.6989C6.50179 18.6408 4.9467 20.9501 3.88466 23.494C2.82261 26.0379 2.27454 28.7663 2.27195 31.5224Z" fill="#313131"/>
<path d="M20.4894 34.6294C18.8734 35.0901 17.2015 35.3262 15.521 35.3309C12.6102 35.1806 10.0005 34.3287 8.04326 32.0737C5.7849 29.4679 5.38341 26.4612 6.38713 23.2541C7.59159 19.3454 10.2514 16.6393 13.8648 14.8353C15.0878 14.2584 16.3656 13.8052 17.6789 13.4823C18.8332 13.1817 19.586 13.783 19.5358 14.9857C19.4856 16.1883 19.3351 17.2407 19.1845 18.3932C18.9838 19.8966 18.7328 21.3999 19.034 22.9534C19.3351 24.5068 20.7403 26.812 21.8946 27.6138L22.3462 26.1104C23.2998 23.3042 24.8555 20.9489 27.4652 19.3955C31.2291 17.1405 35.796 17.9422 38.8574 21.3498C41.467 24.2563 42.5209 27.7641 42.3202 31.6227C42.2372 33.0304 42.0016 34.4249 41.6176 35.7819C41.3165 37.0848 40.4131 37.4857 39.2589 36.734C38.2551 36.0826 37.3016 35.3309 36.3481 34.5793C35.8462 34.2285 35.3444 33.8276 34.8425 33.4768C32.7347 31.9233 30.376 31.7229 27.9169 32.2741C27.7161 32.3242 27.5154 32.3743 27.2143 32.4245V31.7229C27.2325 30.8555 26.9684 30.0055 26.4616 29.3007C25.9549 28.5959 25.2328 28.0743 24.4038 27.8142C23.5668 27.5442 22.6635 27.5601 21.8366 27.8596C21.0096 28.159 20.3061 28.7249 19.8369 29.4679C19.368 30.1974 19.1444 31.0573 19.1986 31.9225C19.2527 32.7876 19.5818 33.613 20.1381 34.2786C20.2384 34.2786 20.3388 34.479 20.4894 34.6294Z" fill="#313131"/>
<path d="M20.4894 34.6293C21.1256 34.9853 21.7987 35.2709 22.4968 35.4812C23.446 35.6828 24.4363 35.5219 25.2724 35.0302C26.1085 34.5386 26.7298 33.7519 27.0136 32.8253C27.0713 32.6776 27.1215 32.5271 27.1641 32.3743C29.1733 34.1138 30.6079 36.4198 31.2794 38.989C31.9175 41.1809 31.6782 43.5346 30.6119 45.5536C29.0561 48.4601 26.4967 49.9635 23.3349 50.3643C18.1658 51.0158 13.8498 49.1116 10.2866 45.4534C9.28291 44.4512 9.43347 43.5492 10.6379 42.8977C11.6918 42.3465 12.7959 41.9456 13.9 41.4445C14.3517 41.2441 14.8535 41.0436 15.3052 40.8432C17.9651 39.7407 19.4706 37.6861 20.2736 34.9801C20.3487 34.868 20.4158 34.7508 20.4744 34.6293H20.4894Z" fill="#313131"/>
</svg>
