<svg width="93" height="93" viewBox="0 0 93 93" fill="none" xmlns="http://www.w3.org/2000/svg">
<path d="M40.3271 92.0991C37.6262 91.6195 34.9551 90.9851 32.3271 90.1991C15.1271 84.2991 4.22707 72.3991 0.82707 54.4991C-3.17293 33.6991 7.62707 13.1991 26.9271 4.19908C37.457 -0.62451 49.4142 -1.31891 60.4317 2.25333C71.4492 5.82557 80.724 13.4041 86.4202 23.4887C92.1163 33.5733 93.8187 45.4291 91.1903 56.709C88.5619 67.989 81.7943 77.8711 72.2271 84.3991C66.4343 88.386 59.7919 90.9677 52.8271 91.9391C52.6146 91.9598 52.4095 92.0282 52.2271 92.1391L40.3271 92.0991ZM4.52707 46.0991C4.5205 51.5752 5.5926 56.999 7.68216 62.0608C9.77171 67.1226 12.8378 71.7232 16.7054 75.6001C24.5163 83.4297 35.1175 87.8358 46.1771 87.8491C57.2366 87.8624 67.8484 83.4817 75.6781 75.6708C83.5077 67.8599 87.9138 57.2586 87.9271 46.1991C87.9271 23.1991 69.3271 4.39908 46.5271 4.39908C41.0272 4.36482 35.5748 5.41784 30.4833 7.49763C25.3917 9.57741 20.7614 12.6429 16.8584 16.518C12.9554 20.3931 9.85677 25.0014 7.74054 30.0779C5.62431 35.1544 4.53223 40.5991 4.52707 46.0991Z" fill="#313131"/>
<path d="M40.827 52.2991C37.607 53.2185 34.2756 53.6896 30.927 53.6991C25.127 53.3991 19.927 51.6991 16.027 47.1991C11.527 41.9991 10.727 35.9991 12.727 29.5991C15.127 21.7991 20.427 16.3991 27.627 12.7991C30.0639 11.6478 32.6099 10.7433 35.227 10.0991C37.527 9.49907 39.027 10.6991 38.927 13.0991C38.827 15.4991 38.527 17.5991 38.227 19.8991C37.827 22.8991 37.327 25.8991 37.927 28.9991C38.527 32.0991 41.327 36.6991 43.627 38.2991L44.527 35.2991C46.427 29.6991 49.527 24.9991 54.727 21.8991C62.227 17.3991 71.327 18.9991 77.427 25.7991C82.627 31.5991 84.727 38.5991 84.327 46.2991C84.1616 49.1082 83.6922 51.8911 82.927 54.5991C82.327 57.1991 80.527 57.9991 78.227 56.4991C76.227 55.1991 74.327 53.6991 72.427 52.1991C71.427 51.4991 70.427 50.6991 69.427 49.9991C65.227 46.8991 60.527 46.4991 55.627 47.5991C55.227 47.6991 54.827 47.7991 54.227 47.8991V46.4991C54.2633 44.768 53.7371 43.0719 52.7273 41.6655C51.7175 40.259 50.2787 39.2181 48.627 38.6991C46.9591 38.1602 45.1592 38.192 43.5114 38.7896C41.8636 39.3871 40.4618 40.5164 39.527 41.9991C38.5926 43.4549 38.147 45.1708 38.2549 46.8973C38.3628 48.6238 39.0186 50.2709 40.127 51.5991C40.327 51.5991 40.527 51.9991 40.827 52.2991Z" fill="#313131"/>
<path d="M40.8271 52.2991C42.0947 53.0094 43.4359 53.5794 44.8271 53.9991C46.7182 54.4013 48.6915 54.0802 50.3576 53.099C52.0236 52.1179 53.2615 50.548 53.8271 48.6991C53.9421 48.4043 54.0422 48.1039 54.1271 47.7991C58.1304 51.2702 60.9892 55.8721 62.3271 60.9991C63.5986 65.3731 63.1217 70.0699 60.9971 74.0991C57.8971 79.8991 52.7971 82.8991 46.4971 83.6991C36.1971 84.9991 27.5971 81.1991 20.4971 73.8991C18.4971 71.8991 18.7971 70.0991 21.1971 68.7991C23.2971 67.6991 25.4971 66.8991 27.6971 65.8991C28.5971 65.4991 29.5971 65.0991 30.4971 64.6991C35.7971 62.4991 38.7971 58.3991 40.3971 52.9991C40.5466 52.7754 40.6803 52.5415 40.7971 52.2991H40.8271Z" fill="#313131"/>
</svg>
