<?xml version="1.0" encoding="UTF-8" standalone="no"?>
<svg
   width="93"
   height="93"
   viewBox="0 0 93 93"
   fill="none"
   version="1.1"
   id="svg8"
   sodipodi:docname="logo-black.svg"
   inkscape:version="1.1.2 (b8e25be833, 2022-02-05)"
   xmlns:inkscape="http://www.inkscape.org/namespaces/inkscape"
   xmlns:sodipodi="http://sodipodi.sourceforge.net/DTD/sodipodi-0.dtd"
   xmlns="http://www.w3.org/2000/svg"
   xmlns:svg="http://www.w3.org/2000/svg">
  <defs
     id="defs12" />
  <sodipodi:namedview
     id="namedview10"
     pagecolor="#505050"
     bordercolor="#eeeeee"
     borderopacity="1"
     inkscape:pageshadow="0"
     inkscape:pageopacity="0"
     inkscape:pagecheckerboard="0"
     showgrid="false"
     inkscape:snap-object-midpoints="true"
     inkscape:zoom="8"
     inkscape:cx="29.8125"
     inkscape:cy="36.75"
     inkscape:window-width="1920"
     inkscape:window-height="1017"
     inkscape:window-x="-8"
     inkscape:window-y="-8"
     inkscape:window-maximized="1"
     inkscape:current-layer="svg8" />
  <path
     d="M40.3271 92.0991C37.6262 91.6195 34.9551 90.9851 32.3271 90.1991C15.1271 84.2991 4.22707 72.3991 0.82707 54.4991C-3.17293 33.6991 7.62707 13.1991 26.9271 4.19908C37.457 -0.62451 49.4142 -1.31891 60.4317 2.25333C71.4492 5.82557 80.724 13.4041 86.4202 23.4887C92.1163 33.5733 93.8187 45.4291 91.1903 56.709C88.5619 67.989 81.7943 77.8711 72.2271 84.3991C66.4343 88.386 59.7919 90.9677 52.8271 91.9391C52.6146 91.9598 52.4095 92.0282 52.2271 92.1391L40.3271 92.0991ZM4.52707 46.0991C4.5205 51.5752 5.5926 56.999 7.68216 62.0608C9.77171 67.1226 12.8378 71.7232 16.7054 75.6001C24.5163 83.4297 35.1175 87.8358 46.1771 87.8491C57.2366 87.8624 67.8484 83.4817 75.6781 75.6708C83.5077 67.8599 87.9138 57.2586 87.9271 46.1991C87.9271 23.1991 69.3271 4.39908 46.5271 4.39908C41.0272 4.36482 35.5748 5.41784 30.4833 7.49763C25.3917 9.57741 20.7614 12.6429 16.8584 16.518C12.9554 20.3931 9.85677 25.0014 7.74054 30.0779C5.62431 35.1544 4.53223 40.5991 4.52707 46.0991Z"
     fill="#313131"
     id="path2" />
  <path
     d="m 62.321582,61.164008 c 1.236612,4.383989 0.72231,9.076841 -1.434324,13.088986 -3.146108,5.77512 -8.269846,8.734395 -14.57602,9.484179 -10.31003,1.2179 -18.879483,-2.650492 -25.921102,-10.006825 -1.984003,-2.015871 -1.669671,-3.813424 0.740609,-5.09426 2.108696,-1.083237 4.514219,-1.861777 6.722117,-2.84422 0.903158,-0.392817 1.906312,-0.784838 2.809471,-1.177655 6.741809,-3.4147 7.343898,-7.501332 9.749031,-12.352044 -3.872376,0.811228 -5.211505,1.381992 -9.285137,1.440805 -5.8,-0.3 -11,-2 -14.9,-6.5 -4.5,-5.2 -5.499219,-11.203906 -3.499219,-17.603906 2.4,-7.8 7.7,-13.2 14.9,-16.8 2.4369,-1.1513 4.9829,-2.0558 7.6,-2.7 2.3,-0.60003 3.8,0.6 3.7,3 -0.1,2.4 -0.4,4.5 -0.7,6.8 -0.4,3 -0.9,6 -0.3,9.1 0.6,3.1 2.502063,6.855844 5.472656,9.360156 2.220594,-10.003501 6.127344,-13.360156 11.327344,-16.460156 7.5,-4.5 16.6,-2.9 22.7,3.9 5.2,5.8 7.3,12.8 6.9,20.5 -0.1654,2.8091 -0.6348,5.592 -1.4,8.3 -0.6,2.6 -2.4,3.4 -4.7,1.9 -2,-1.3 -3.9,-2.8 -5.8,-4.3 -1,-0.7 -2,-1.5 -3,-2.2 -4.2,-3.1 -8.964456,-3.455053 -13.864456,-2.355053 -0.308492,0.07712 -0.773167,0.161209 -1.419954,0.268279 3.841019,3.474416 6.909925,8.224943 8.178984,13.251714 z M 52.782554,41.709665 c -1.009824,-1.406483 -2.539107,-2.584337 -4.188689,-3.110031 -1.670045,-0.532215 -3.600366,-0.47391 -5.248182,0.123642 -1.647784,0.597544 -2.955256,1.741621 -3.896012,3.220549 -0.928459,1.459596 -1.228446,3.208454 -1.073226,4.931345 0.216832,2.406768 1.287544,3.854843 2.385311,4.980801 0.882928,0.905602 2.657519,1.756598 4.087582,2.014485 2.340439,0.422057 4.356515,-0.334865 5.97467,-1.393273 1.628089,-1.064906 2.859472,-3.484534 3.148688,-5.134275 0.289215,-1.649741 -0.180366,-4.226826 -1.190142,-5.633243 z"
     fill="#313131"
     id="path6"
     sodipodi:nodetypes="cccccccccccccscscccccccccccssssssssss" />
</svg>
